<?xml version="1.0" ?>
<!-- Uploaded to: SVG Repo, www.svgrepo.com, Generator: SVG Repo Mixer Tools -->
<svg width="800px" height="800px" viewBox="0 0 64 64" xmlns="http://www.w3.org/2000/svg">
<defs>
<style>.cls-1{fill:#f2f2fc;}.cls-2{fill:#61729b;}.cls-3{fill:#fd9200;}.cls-4{fill:#fdbf00;}</style>
</defs>
<title/>
<g id="money">
<rect class="cls-1" height="2.492" width="30" x="17" y="48.508"/>
<path class="cls-1" d="M47,5H37V8a1,1,0,0,1-1,1H28a1,1,0,0,1-1-1V5H17v9.508H47Z"/>
<path class="cls-2" d="M17,59H47V53H17Zm11-4h8a1,1,0,0,1,0,2H28a1,1,0,0,1,0-2Z"/>
<rect class="cls-2" height="2" width="6" x="29" y="5"/>
<path d="M28,57h8a1,1,0,0,0,0-2H28a1,1,0,0,0,0,2Z"/>
<path class="cls-3" d="M5,46.508H59v-30H5Zm2-27a1,1,0,0,1,1-1H56a1,1,0,0,1,1,1v24a1,1,0,0,1-1,1H8a1,1,0,0,1-1-1Z"/>
<path d="M60,14.508H49V4a1,1,0,0,0-1-1H16a1,1,0,0,0-1,1V14.508H4a1,1,0,0,0-1,1v32a1,1,0,0,0,1,1H15V60a1,1,0,0,0,1,1H48a1,1,0,0,0,1-1V48.508H60a1,1,0,0,0,1-1v-32A1,1,0,0,0,60,14.508ZM47,59H17V53H47Zm0-8H17V48.508H47Zm12-4.492H5v-30H59ZM29,5h6V7H29ZM17,5H27V8a1,1,0,0,0,1,1h8a1,1,0,0,0,1-1V5H47v9.508H17Z"/>
<path class="cls-4" d="M32,24.508a7,7,0,1,0,7,7A7,7,0,0,0,32,24.508Zm0,6a3.074,3.074,0,0,1,1,5.983v.622a1,1,0,0,1-2,0v-.622a3.074,3.074,0,0,1-2.082-2.9,1,1,0,0,1,2,0A1.082,1.082,0,1,0,32,32.507a3.074,3.074,0,0,1-1-5.983V25.9a1,1,0,0,1,2,0v.621a3.074,3.074,0,0,1,2.082,2.9,1,1,0,0,1-2,0A1.082,1.082,0,0,0,32,28.344H32a1.081,1.081,0,0,0,0,2.163Z"/>
<path class="cls-4" d="M55,20.508H9v22H55Zm-23,20a9,9,0,1,1,9-9A9,9,0,0,1,32,40.508Z"/>
<path d="M8,44.508H56a1,1,0,0,0,1-1v-24a1,1,0,0,0-1-1H8a1,1,0,0,0-1,1v24A1,1,0,0,0,8,44.508Zm1-24H55v22H9Z"/>
<path d="M32,22.508a9,9,0,1,0,9,9A9,9,0,0,0,32,22.508Zm0,16a7,7,0,1,1,7-7A7,7,0,0,1,32,38.508Z"/>
<path d="M32,28.344a1.082,1.082,0,0,1,1.078,1.081,1,1,0,0,0,2,0A3.074,3.074,0,0,0,33,26.524v.821A1,1,0,0,1,32,28.344Z"/>
<path d="M32,34.67a1.082,1.082,0,0,1-1.082-1.082,1,1,0,0,0-2,0A3.074,3.074,0,0,0,31,36.489v-.82A1,1,0,0,1,32,34.67Z"/>
<path d="M32,28.344a1,1,0,0,1-1-1v-.821a3.074,3.074,0,0,0,1,5.983,1.082,1.082,0,1,1,0,2.163,1,1,0,0,1,1,1v.82a3.074,3.074,0,0,0-1-5.983,1.081,1.081,0,0,1,0-2.163Z"/>
<path d="M32,28.344H32a1,1,0,0,0,1-1V25.9a1,1,0,0,0-2,0v1.442A1,1,0,0,0,32,28.344Z"/>
<path d="M32,34.67a1,1,0,0,0-1,1v1.442a1,1,0,0,0,2,0V35.67A1,1,0,0,0,32,34.67Z"/>
</g>
</svg>