<?xml version="1.0" encoding="iso-8859-1"?>
<!-- Generator: Adobe Illustrator 20.0.0, SVG Export Plug-In . SVG Version: 6.00 Build 0)  -->
<svg version="1.1" id="Layer_1_1_" xmlns="http://www.w3.org/2000/svg" xmlns:xlink="http://www.w3.org/1999/xlink" x="0px" y="0px"
	 viewBox="0 0 64 64" style="enable-background:new 0 0 64 64;" xml:space="preserve">
<g>
</g>
<circle style="fill:#DD6743;" cx="23" cy="17" r="5"/>
<path style="fill:#EDE7A6;" d="M38,50c0-3.585,1.589-6.799,4.089-9H42V5.414l-0.293,0.293c-0.337,0.337-0.865,0.391-1.262,0.125
	L38,4.202l-2.445,1.63c-0.336,0.225-0.773,0.225-1.109,0L32,4.202l-2.445,1.63c-0.336,0.225-0.773,0.225-1.109,0L26,4.202
	l-2.445,1.63c-0.336,0.225-0.773,0.225-1.109,0L20,4.202l-2.445,1.63c-0.336,0.225-0.773,0.225-1.109,0L14,4.202l-2.445,1.63
	c-0.336,0.225-0.773,0.225-1.109,0L8,4.202l-2.445,1.63C5.159,6.098,4.63,6.045,4.293,5.707L4,5.414V56c0,2.206,1.794,4,4,4h35.381
	C40.142,57.849,38,54.172,38,50z M38,31h2v2h-2V31z M38,36h2v2h-2V36z M26,53H8v-2h18V53z M26,48H8v-2h18V48z M26,43H8v-2h18V43z
	 M26,38H8v-2h18V38z M26,33H8v-2h18V33z M18,28v-2h2v2H18z M22,28v-2h2v2H22z M28,28h-2v-2h2V28z M23,24c-3.86,0-7-3.141-7-7
	s3.14-7,7-7s7,3.141,7,7S26.86,24,23,24z M36,53h-4v-2h4V53z M36,48h-4v-2h4V48z M36,43h-4v-2h4V43z M36,38h-4v-2h4V38z M36,33h-4
	v-2h4V33z"/>
<path style="fill:#78BA8C;" d="M57.445,13.83l-2.446-1.632l-2.445,1.627c-0.335,0.223-0.773,0.223-1.11-0.002l-2.447-1.638
	l-2.445,1.617c-0.338,0.224-0.778,0.22-1.112-0.006L44,12.822v26.801C45.768,38.597,47.813,38,50,38c4.171,0,7.849,2.142,10,5.381
	V12.867l-1.446,0.963C58.218,14.055,57.781,14.055,57.445,13.83z"/>
<path style="fill:#A6E0B5;" d="M50,40c-5.514,0-10,4.486-10,10s4.486,10,10,10s10-4.486,10-10S55.514,40,50,40z M48.707,54.707
	C48.512,54.902,48.256,55,48,55s-0.512-0.098-0.707-0.293l-4-4l1.414-1.414L48,52.586l7.293-7.293l1.414,1.414L48.707,54.707z"/>
<path style="fill:#42342A;" d="M23,10c-3.86,0-7,3.141-7,7s3.14,7,7,7s7-3.141,7-7S26.86,10,23,10z M23,22c-2.757,0-5-2.243-5-5
	s2.243-5,5-5s5,2.243,5,5S25.757,22,23,22z"/>
<rect x="8" y="31" style="fill:#42342A;" width="18" height="2"/>
<rect x="8" y="36" style="fill:#42342A;" width="18" height="2"/>
<rect x="8" y="41" style="fill:#42342A;" width="18" height="2"/>
<rect x="8" y="46" style="fill:#42342A;" width="18" height="2"/>
<rect x="8" y="51" style="fill:#42342A;" width="18" height="2"/>
<rect x="32" y="31" style="fill:#42342A;" width="4" height="2"/>
<rect x="32" y="36" style="fill:#42342A;" width="4" height="2"/>
<rect x="38" y="36" style="fill:#42342A;" width="2" height="2"/>
<rect x="38" y="31" style="fill:#42342A;" width="2" height="2"/>
<rect x="32" y="41" style="fill:#42342A;" width="4" height="2"/>
<rect x="32" y="46" style="fill:#42342A;" width="4" height="2"/>
<rect x="32" y="51" style="fill:#42342A;" width="4" height="2"/>
<path style="fill:#42342A;" d="M61.472,10.118c-0.324-0.173-0.72-0.153-1.026,0.05L58,11.796l-2.445-1.632
	c-0.335-0.224-0.773-0.225-1.109-0.001l-2.445,1.627l-2.445-1.637c-0.335-0.224-0.771-0.225-1.108-0.003l-2.442,1.615L44,10.407V3
	c0-0.404-0.244-0.77-0.617-0.924c-0.375-0.155-0.803-0.069-1.09,0.217l-1.421,1.42l-2.317-1.545c-0.336-0.225-0.773-0.225-1.109,0
	L35,3.798l-2.446-1.63c-0.336-0.225-0.773-0.225-1.109,0L29,3.798l-2.445-1.63c-0.336-0.225-0.773-0.225-1.109,0L23,3.798
	l-2.445-1.63c-0.336-0.225-0.773-0.225-1.109,0L17,3.798l-2.445-1.63c-0.336-0.225-0.773-0.225-1.109,0L11,3.798l-2.446-1.63
	c-0.336-0.225-0.773-0.225-1.109,0L5.127,3.713l-1.42-1.42c-0.286-0.287-0.715-0.374-1.09-0.217C2.244,2.23,2,2.596,2,3v53
	c0,3.309,2.691,6,6,6h42c6.617,0,12-5.383,12-12V11C62,10.631,61.797,10.293,61.472,10.118z M8,60c-2.206,0-4-1.794-4-4V5.414
	l0.293,0.293C4.63,6.045,5.159,6.098,5.555,5.832L8,4.202l2.446,1.63c0.336,0.225,0.773,0.225,1.109,0L14,4.202l2.445,1.63
	c0.336,0.225,0.773,0.225,1.109,0L20,4.202l2.445,1.63c0.336,0.225,0.773,0.225,1.109,0L26,4.202l2.445,1.63
	c0.336,0.225,0.773,0.225,1.109,0L32,4.202l2.446,1.63c0.336,0.225,0.773,0.225,1.109,0L38,4.202l2.445,1.63
	c0.397,0.266,0.925,0.212,1.262-0.125L42,5.414V41h0.089C39.589,43.201,38,46.415,38,50c0,4.172,2.142,7.849,5.381,10H8z M50,60
	c-5.514,0-10-4.486-10-10s4.486-10,10-10s10,4.486,10,10S55.514,60,50,60z M50,38c-2.187,0-4.232,0.597-6,1.624V12.822l1.439,0.975
	c0.334,0.226,0.774,0.229,1.112,0.006l2.445-1.617l2.447,1.638c0.336,0.225,0.774,0.225,1.11,0.002l2.445-1.627l2.446,1.632
	c0.336,0.225,0.773,0.225,1.109,0L60,12.867v30.514C57.849,40.142,54.171,38,50,38z"/>
<path style="fill:#42342A;" d="M48,52.586l-3.293-3.293l-1.414,1.414l4,4C47.488,54.902,47.744,55,48,55s0.512-0.098,0.707-0.293
	l8-8l-1.414-1.414L48,52.586z"/>
<rect x="22" y="26" style="fill:#42342A;" width="2" height="2"/>
<rect x="18" y="26" style="fill:#42342A;" width="2" height="2"/>
<rect x="26" y="26" style="fill:#42342A;" width="2" height="2"/>
</svg>
