<?xml version="1.0" encoding="UTF-8" standalone="no"?> <svg xmlns="http://www.w3.org/2000/svg" viewBox="0 0 32 32"><defs><style>.cls-1{fill:#2d4a60;}.cls-2{fill:#ffd188;}.cls-3{fill:#e67244;}.cls-4{fill:#fd3730;}.cls-5{fill:#ff9500;}.cls-6{fill:#fac100;}.cls-7{fill:#ff7f00;}</style></defs><title>Investor</title><g id="Investor"><path class="cls-1" d="M18,17H14a9,9,0,0,0-9,9v1a3,3,0,0,0,3,3H24a3,3,0,0,0,3-3V26A9,9,0,0,0,18,17Z"/><circle class="cls-2" cx="16" cy="9" r="7"/><path class="cls-3" d="M9.156,7.534A8.98,8.98,0,0,0,12,8a8.955,8.955,0,0,0,6-2.3,8.975,8.975,0,0,0,4.909,2.231A6.995,6.995,0,0,0,9.156,7.534Z"/><path class="cls-4" d="M14,17l1,2-1.677,5.868a2,2,0,0,0,.509,1.964l1.461,1.461a1,1,0,0,0,1.414,0l1.461-1.461a2,2,0,0,0,.509-1.964L17,19l1-2Z"/><path class="cls-5" d="M25.5,30c-2.565,0-4.5-1.29-4.5-3V19c0-1.71,1.935-3,4.5-3S30,17.29,30,19v8C30,28.71,28.065,30,25.5,30Z"/><ellipse class="cls-6" cx="25.5" cy="19" rx="4.5" ry="3"/><path class="cls-7" d="M21,24c0,1.657,2.015,3,4.5,3S30,25.657,30,24V22c0,1.657-2.015,3-4.5,3S21,23.657,21,22Z"/></g></svg>