<?xml version="1.0" encoding="utf-8"?>
<!-- Generator: Adobe Illustrator 16.0.0, SVG Export Plug-In . SVG Version: 6.00 Build 0)  -->
<!DOCTYPE svg PUBLIC "-//W3C//DTD SVG 1.1//EN" "http://www.w3.org/Graphics/SVG/1.1/DTD/svg11.dtd">
<svg version="1.1" id="Calque_1" xmlns="http://www.w3.org/2000/svg" xmlns:xlink="http://www.w3.org/1999/xlink" x="0px" y="0px"
	 width="512px" height="512px" viewBox="0 0 512 512" enable-background="new 0 0 512 512" xml:space="preserve">
<g>
	<path fill="#BA441A" d="M297.283,316.881H75.378c-2.761,0-5,2.238-5,5s2.239,5,5,5h221.905c2.762,0,5-2.238,5-5
		S300.045,316.881,297.283,316.881z"/>
	<path fill="#BA441A" d="M75.378,295.96h125.505c2.761,0,5-2.238,5-5s-2.239-5-5-5H75.378c-2.761,0-5,2.238-5,5
		S72.617,295.96,75.378,295.96z"/>
	<path fill="#BA441A" d="M396.54,77.86c-31.68,0-59.5,16.85-74.97,42.05H49.26c-11.97,0-21.71,9.74-21.71,21.71v214.1
		c0,11.971,9.74,21.71,21.71,21.71h32.48v35c0,11.971,9.75,21.71,21.72,21.71h336.771c11.97,0,21.699-9.739,21.699-21.71V224.44
		c13.99-15.57,22.511-36.15,22.511-58.68C484.441,117.29,445.01,77.86,396.54,77.86z M37.55,141.62c0-6.45,5.26-11.71,11.71-11.71
		h267.021c-4.91,10.96-7.65,23.09-7.65,35.85c0,1.27,0.04,2.54,0.09,3.79H37.55V141.62z M37.55,179.55h272.17
		c2.67,16.92,10.19,32.24,21.09,44.51H37.55V179.55z M49.26,367.429c-6.45,0-11.71-5.25-11.71-11.71V234.06h303.71
		c15.12,12.26,34.351,19.61,55.28,19.61c0.4,0,0.8-0.01,1.2-0.02v102.07c0,6.46-5.25,11.71-11.71,11.71H49.26z M451.93,412.429
		c0,6.46-5.25,11.71-11.699,11.71H103.46c-6.46,0-11.72-5.25-11.72-11.71v-35h294.29c11.97,0,21.71-9.739,21.71-21.71V252.96
		c16.62-2.12,31.8-8.91,44.189-18.99V412.429z M396.54,243.67c-42.96,0-77.91-34.95-77.91-77.91c0-42.95,34.95-77.9,77.91-77.9
		s77.9,34.95,77.9,77.9C474.441,208.72,439.5,243.67,396.54,243.67z"/>
	<path fill="#EDA183" d="M451.93,233.97v178.459c0,6.46-5.25,11.71-11.699,11.71H103.46c-6.46,0-11.72-5.25-11.72-11.71v-35h294.29
		c11.97,0,21.71-9.739,21.71-21.71V252.96C424.361,250.84,439.54,244.05,451.93,233.97z"/>
	<path fill="#EDA183" d="M330.81,224.06H37.55v-44.51h272.17C312.39,196.47,319.91,211.79,330.81,224.06z"/>
	<path fill="#BA441A" d="M432.31,194.46c1.95,1.95,1.95,5.12,0,7.07c-0.979,0.98-2.26,1.46-3.54,1.46c-1.279,0-2.56-0.48-3.529-1.46
		l-28.7-28.7l-28.69,28.7c-0.979,0.98-2.26,1.46-3.54,1.46c-1.279,0-2.56-0.48-3.529-1.46c-1.96-1.95-1.96-5.12,0-7.07l28.689-28.7
		l-28.689-28.69c-1.96-1.95-1.96-5.12,0-7.07c1.95-1.95,5.109-1.95,7.069,0l28.69,28.69l28.7-28.69c1.95-1.95,5.109-1.95,7.069,0
		c1.95,1.95,1.95,5.12,0,7.07l-28.699,28.69L432.31,194.46z"/>
</g>
</svg>
